# xmcd CD database file
#
# Track frame offsets:
#	182
#	30507
#	45312
#	65227
#	86870
#	97337
#	115675
#	125157
#	149107
#	175015
#
# Disc length: 2467 seconds
#
# Revision: 1
# Processed by: cddbd v1.5.2PL0 Copyright (c) Steve Scherf et al.
# Submitted via: CDex 1.70beta2
#
DISCID=9509a10a
DTITLE=Various Artist - Limitless Luxury Compilation - BLUE
DYEAR=2002
DGENRE=Jazz
TTITLE0=Coco Schumann Quartett - One Note Samba
TTITLE1=Datach'I - Blue
TTITLE2=Jun Miyake - Trejeitos
TTITLE3=Ludovico Einaudi - Passagio
TTITLE4=Jon Hendricks - Jive Samba
TTITLE5=Clifford Gilberto - Old Docg New Tricks
TTITLE6=Julie London - It Ain't What You Do
TTITLE7=Carmen Piazzini - Retrato De Alfredo Gobbi
TTITLE8=Mel Thormé and The Marty Paich Dek-Tette - The Goodby Look
TTITLE9=Carlos Lyra - Vocé E Eu
EXTD=YEAR: 2002
EXTT0=
EXTT1=
EXTT2=
EXTT3=
EXTT4=
EXTT5=
EXTT6=
EXTT7=
EXTT8=
EXTT9=
PLAYORDER=
